{
	"asset":{
		"generator":"Khronos glTF Blender I/O v4.5.47",
		"version":"2.0"
	},
	"scene":0,
	"scenes":[
		{
			"name":"Scene",
			"nodes":[
				0
			]
		}
	],
	"nodes":[
		{
			"mesh":0,
			"name":"tree",
			"translation":[
				0,
				0,
				-10.691553115844727
			]
		}
	],
	"materials":[
		{
			"doubleSided":true,
			"name":"Material.001"
		}
	],
	"meshes":[
		{
			"name":"Mesh.003",
			"primitives":[
				{
					"attributes":{
						"POSITION":0,
						"NORMAL":1
					},
					"indices":2,
					"material":0
				}
			]
		}
	],
	"accessors":[
		{
			"bufferView":0,
			"componentType":5126,
			"count":88992,
			"max":[
				4.396391868591309,
				15.937946319580078,
				5.241814136505127
			],
			"min":[
				-4.7660627365112305,
				-0.008179910480976105,
				-3.7733476161956787
			],
			"type":"VEC3"
		},
		{
			"bufferView":1,
			"componentType":5126,
			"count":88992,
			"type":"VEC3"
		},
		{
			"bufferView":2,
			"componentType":5125,
			"count":300672,
			"type":"SCALAR"
		}
	],
	"bufferViews":[
		{
			"buffer":0,
			"byteLength":1067904,
			"byteOffset":0,
			"target":34962
		},
		{
			"buffer":0,
			"byteLength":1067904,
			"byteOffset":1067904,
			"target":34962
		},
		{
			"buffer":0,
			"byteLength":1202688,
			"byteOffset":2135808,
			"target":34963
		}
	],
	"buffers":[
		{
			"byteLength":3338496,
			"uri":"Tree1.bin"
		}
	]
}
